<svg xmlns="http://www.w3.org/2000/svg" viewBox="0 0 64 64" fill="none">
  <defs>
    <radialGradient id="af" cx="0.5" cy="0.7" r="0.6"><stop offset="0%" stop-color="#fef3c7"/><stop offset="40%" stop-color="#f97316"/><stop offset="100%" stop-color="#7c2d12" stop-opacity="0"/></radialGradient>
  </defs>
  <circle cx="32" cy="32" r="28" fill="url(#af)"/>
  <path d="M32 50 C20 44 18 32 28 22 C28 28 32 30 32 24 C36 28 40 32 38 38 C42 36 42 30 40 26 C46 32 48 42 38 50 C36 46 34 44 32 50 Z" fill="#f97316"/>
  <path d="M32 46 C26 42 26 36 30 32 C30 34 32 36 32 32 C34 36 36 38 35 42 C36 40 36 38 35 36 C39 40 39 44 32 46 Z" fill="#fbbf24"/>
</svg>
