<svg xmlns="http://www.w3.org/2000/svg" viewBox="0 0 64 64" fill="none">
  <defs>
    <linearGradient id="cs" x1="0" y1="0" x2="0" y2="1"><stop offset="0%" stop-color="#dc2626"/><stop offset="100%" stop-color="#7f1d1d"/></linearGradient>
    <radialGradient id="csglow" cx="0.5" cy="0.5" r="0.5"><stop offset="0%" stop-color="#fbbf24" stop-opacity="0.4"/><stop offset="100%" stop-color="#fbbf24" stop-opacity="0"/></radialGradient>
  </defs>
  <circle cx="32" cy="32" r="30" fill="url(#csglow)"/>
  <path d="M16 8 L48 8 L48 56 L40 52 L32 56 L24 52 L16 56 Z" fill="url(#cs)" stroke="#fbbf24" stroke-width="2"/>
  <line x1="20" y1="14" x2="44" y2="14" stroke="#fbbf24" stroke-width="1.2"/>
  <text x="32" y="30" font-size="14" fill="#fbbf24" text-anchor="middle" font-family="serif" font-weight="bold">敕令</text>
  <text x="32" y="46" font-size="11" fill="#fde68a" text-anchor="middle" font-family="serif" font-weight="bold">S</text>
  <circle cx="20" cy="20" r="2" fill="#fbbf24"/>
  <circle cx="44" cy="20" r="2" fill="#fbbf24"/>
  <circle cx="20" cy="44" r="2" fill="#fbbf24"/>
  <circle cx="44" cy="44" r="2" fill="#fbbf24"/>
  <path d="M32 6 L33 9 L36 9 L34 11 L35 14 L32 12 L29 14 L30 11 L28 9 L31 9 Z" fill="#fde68a"/>
</svg>
