<svg xmlns="http://www.w3.org/2000/svg" viewBox="0 0 64 64" fill="none">
  <defs>
    <linearGradient id="fp" x1="0" y1="0" x2="1" y2="1"><stop offset="0%" stop-color="#fbbf24"/><stop offset="40%" stop-color="#a855f7"/><stop offset="100%" stop-color="#581c87"/></linearGradient>
    <radialGradient id="fpglow" cx="0.5" cy="0.5" r="0.5"><stop offset="0%" stop-color="#a855f7" stop-opacity="0.5"/><stop offset="100%" stop-color="#a855f7" stop-opacity="0"/></radialGradient>
  </defs>
  <circle cx="32" cy="32" r="30" fill="url(#fpglow)"/>
  <circle cx="32" cy="32" r="28" fill="none" stroke="url(#fp)" stroke-width="6"/>
  <circle cx="32" cy="32" r="22" fill="none" stroke="#c084fc" stroke-width="1.5"/>
  <polygon points="32,2 35,8 41,8 36,12 38,18 32,15 26,18 28,12 23,8 29,8" fill="#fbbf24"/>
  <polygon points="32,62 35,56 41,56 36,52 38,46 32,49 26,46 28,52 23,56 29,56" fill="#fbbf24"/>
  <circle cx="6" cy="32" r="4" fill="url(#fp)"/>
  <circle cx="58" cy="32" r="4" fill="url(#fp)"/>
  <circle cx="14" cy="14" r="2.5" fill="#fbbf24"/>
  <circle cx="50" cy="14" r="2.5" fill="#fbbf24"/>
  <circle cx="14" cy="50" r="2.5" fill="#fbbf24"/>
  <circle cx="50" cy="50" r="2.5" fill="#fbbf24"/>
  <text x="32" y="38" font-size="9" fill="#fbbf24" text-anchor="middle" font-weight="bold">紫金</text>
</svg>
