<svg xmlns="http://www.w3.org/2000/svg" viewBox="0 0 64 64" fill="none">
  <defs>
    <linearGradient id="fg" x1="0" y1="0" x2="1" y2="1"><stop offset="0%" stop-color="#fef3c7"/><stop offset="50%" stop-color="#fbbf24"/><stop offset="100%" stop-color="#a16207"/></linearGradient>
    <radialGradient id="fgglow" cx="0.5" cy="0.5" r="0.5"><stop offset="0%" stop-color="#fbbf24" stop-opacity="0.4"/><stop offset="100%" stop-color="#fbbf24" stop-opacity="0"/></radialGradient>
  </defs>
  <circle cx="32" cy="32" r="30" fill="url(#fgglow)"/>
  <circle cx="32" cy="32" r="28" fill="none" stroke="url(#fg)" stroke-width="6"/>
  <circle cx="32" cy="32" r="22" fill="none" stroke="#fbbf24" stroke-width="1.5"/>
  <circle cx="32" cy="32" r="18" fill="none" stroke="#fde68a" stroke-width="0.8"/>
  <path d="M32 4 L34 9 L40 9 L35 12 L37 18 L32 14 L27 18 L29 12 L24 9 L30 9 Z" fill="#fbbf24" stroke="#a16207" stroke-width="1"/>
  <path d="M32 56 L34 61 L40 61 L35 64 L37 70 L32 66 L27 70 L29 64 L24 61 L30 61 Z" fill="#fbbf24" stroke="#a16207" stroke-width="1"/>
  <circle cx="6" cy="32" r="4" fill="#fbbf24" stroke="#a16207" stroke-width="1"/>
  <circle cx="58" cy="32" r="4" fill="#fbbf24" stroke="#a16207" stroke-width="1"/>
  <text x="32" y="38" font-size="10" fill="#7c2d12" text-anchor="middle" font-weight="bold">金</text>
</svg>
