<svg xmlns="http://www.w3.org/2000/svg" viewBox="0 0 64 64" fill="none">
  <defs>
    <radialGradient id="mp" cx="0.5" cy="0.5" r="0.5"><stop offset="0%" stop-color="#a855f7" stop-opacity="0.5"/><stop offset="100%" stop-color="#a855f7" stop-opacity="0"/></radialGradient>
  </defs>
  <circle cx="32" cy="36" r="26" fill="url(#mp)"/>
  <path d="M32 12 Q14 16 14 36 Q14 52 32 56 Q50 52 50 36 Q50 16 32 12" fill="#a855f7" stroke="#581c87" stroke-width="1.5"/>
  <path d="M22 28 Q24 24 28 28 Q24 32 22 28" fill="#fbbf24"/>
  <path d="M36 28 Q40 24 42 28 Q40 32 36 28" fill="#fbbf24"/>
  <path d="M24 44 Q32 50 40 44" stroke="#fbbf24" stroke-width="2" fill="none"/>
  <path d="M28 22 L30 18 L26 16" stroke="#fbbf24" stroke-width="1.5" fill="none"/>
  <path d="M36 22 L34 18 L38 16" stroke="#fbbf24" stroke-width="1.5" fill="none"/>
  <circle cx="32" cy="36" r="2" fill="#fbbf24"/>
</svg>
