<svg xmlns="http://www.w3.org/2000/svg" viewBox="0 0 64 64" fill="none">
  <path d="M10 14 L30 12 L30 54 L10 56 Z" fill="#92400e" stroke="#451a03" stroke-width="1.5"/>
  <path d="M34 12 L54 14 L54 56 L34 54 Z" fill="#a16207" stroke="#451a03" stroke-width="1.5"/>
  <path d="M30 12 L34 12 L34 54 L30 54 Z" fill="#451a03"/>
  <path d="M14 22 L26 21 M14 28 L26 27 M14 34 L26 33" stroke="#fbbf24" stroke-width="0.8"/>
  <path d="M38 22 L50 23 M38 28 L50 29 M38 34 L50 35" stroke="#fbbf24" stroke-width="0.8"/>
  <circle cx="20" cy="44" r="4" fill="#10b981"/>
  <line x1="20" y1="48" x2="20" y2="50" stroke="#92400e" stroke-width="1"/>
  <circle cx="44" cy="44" r="4" fill="#10b981"/>
  <line x1="44" y1="48" x2="44" y2="50" stroke="#92400e" stroke-width="1"/>
</svg>
